<?xml version="1.0" encoding="utf-8"?>
<!-- Generator: Adobe Illustrator 26.1.0, SVG Export Plug-In . SVG Version: 6.00 Build 0)  -->
<svg version="1.1" id="Слой_1" xmlns="http://www.w3.org/2000/svg" xmlns:xlink="http://www.w3.org/1999/xlink" x="0px" y="0px"
	 viewBox="0 0 120 120" style="enable-background:new 0 0 120 120;" xml:space="preserve">
<style type="text/css">
	.st0{fill-rule:evenodd;clip-rule:evenodd;fill:#DC295C;}
	.st1{fill-rule:evenodd;clip-rule:evenodd;fill:#61C8D5;}
	.st2{fill-rule:evenodd;clip-rule:evenodd;fill:#E4E5E6;}
	.st3{fill:#FFFFFF;}
	.st4{fill-rule:evenodd;clip-rule:evenodd;fill:#E07B9A;}
</style>
<g>
	<path class="st0" d="M56.7,5.2c31.3,0,56.7,25.4,56.7,56.6c0,31.3-25.4,56.6-56.7,56.6S0,93.1,0,61.8C0,30.6,25.4,5.2,56.7,5.2z"/>
	<path class="st1" d="M63.3,5.2c31.3,0,56.7,25.4,56.7,56.6c0,31.3-25.4,56.6-56.7,56.6S6.6,93.1,6.6,61.8C6.6,30.6,32,5.2,63.3,5.2
		z"/>
	<path class="st2" d="M59.7,4.8c29.4,0,53.2,25.4,53.2,56.8c0,31.4-23.8,56.8-53.2,56.8c-29.4,0-53.2-25.4-53.2-56.8
		C6.4,30.2,30.3,4.8,59.7,4.8z"/>
	<path class="st3" d="M59.7,9.8c28.7,0,52,23.2,52,51.9c0,28.7-23.3,51.9-52,51.9c-28.7,0-52-23.2-52-51.9C7.8,33,31,9.8,59.7,9.8z"
		/>
</g>
<g>
	<path class="st0" d="M60,21.5c8.5,0,15.4,6.9,15.4,15.4v49.9c0,8.5-6.9,15.4-15.4,15.4s-15.4-6.9-15.4-15.4V36.9
		C44.6,28.4,51.5,21.5,60,21.5z"/>
</g>
<g>
	<path class="st1" d="M100.4,61.8c0,8.5-6.9,15.4-15.4,15.4H35c-8.5,0-15.4-6.9-15.4-15.4S26.5,46.4,35,46.4h50
		C93.5,46.4,100.4,53.3,100.4,61.8z"/>
</g>
<rect x="44.6" y="46.4" class="st4" width="30.9" height="30.8"/>
</svg>
